<svg height="16" width="16" xmlns="http://www.w3.org/2000/svg"><g stroke="#888a85" stroke-linecap="round" stroke-linejoin="round"><g stroke-width=".574"><path d="m3.5847458 2.2457627c0 .552285-.4477153 1-1 1s-1-.447715-1-1 .4477153-1 1-1 1 .447715 1 1z" fill="#eeeeec" fill-rule="evenodd"/><path d="m2.6232909 9.2543526 6.7703663-7.1527716" fill="none"/><g fill="#eeeeec" fill-rule="evenodd"><path d="m9.0091884 1.1784431c.5098352-.21233642 1.0952706.0288338 1.3076066.5386691.212337.5098352-.028834 1.0952704-.5386689 1.3076068-.5098353.2123364-1.0952705-.0288339-1.3076069-.5386691-.2123363-.5098353.0288339-1.0952705.5386692-1.3076068z"/><path d="m2.2388221 8.3312146c.5098352-.2123364 1.0952704.0288339 1.3076068.5386691.2123364.5098353-.0288338 1.0952704-.5386691 1.3076073-.5098352.212336-1.0952704-.028834-1.3076068-.5386696-.2123364-.5098352.0288338-1.0952704.5386691-1.3076068z"/></g></g><path d="m7.3383953 12.998861c4.9749717 4.7562 3.1017737-1.810248 4.2380787-3.1117223.757538-.8676496 3.930936-1.0175486 1.858031-2.9992987-3.316648-3.1708004-2.988647.643518-4.3097035 1.4513734-.9862422.6031072-4.6884732 1.8851976-1.7864062 4.6596476z" fill="none" stroke-width=".574439"/></g></svg>